<!DOCTYPE svg PUBLIC "-//W3C//DTD SVG 1.1//EN" "http://www.w3.org/Graphics/SVG/1.1/DTD/svg11.dtd">
<!-- Uploaded to: SVG Repo, www.svgrepo.com, Transformed by: SVG Repo Mixer Tools -->
<svg width="256px" height="256px" viewBox="0 0 36 36" xmlns="http://www.w3.org/2000/svg" xmlns:xlink="http://www.w3.org/1999/xlink" aria-hidden="true" role="img" class="iconify iconify--twemoji" preserveAspectRatio="xMidYMid meet" fill="#000000">
<g id="SVGRepo_bgCarrier" stroke-width="0"/>
<g id="SVGRepo_tracerCarrier" stroke-linecap="round" stroke-linejoin="round"/>
<g id="SVGRepo_iconCarrier">
<path fill="#256d85" d="M36 32a4 4 0 0 1-4 4H4a4 4 0 0 1-4-4V4a4 4 0 0 1 4-4h28a4 4 0 0 1 4 4v28z"/>
<path fill="#FFF" d="M8 9.156c0-1.55 1.167-2.418 2.5-2.418s2.5.868 2.5 2.418v10.821c0 2.853 2.055 4.923 5 4.923c2.822 0 5-2.194 5-4.923V9.156c0-1.55 1.168-2.418 2.5-2.418c1.334 0 2.467.868 2.467 2.418v11.069c0 5.209-4.852 9.147-9.967 9.147c-5.178 0-10-3.876-10-9.147V9.156z"/>
</g>
</svg>