<!DOCTYPE svg PUBLIC "-//W3C//DTD SVG 1.1//EN" "http://www.w3.org/Graphics/SVG/1.1/DTD/svg11.dtd">
<!-- Uploaded to: SVG Repo, www.svgrepo.com, Transformed by: SVG Repo Mixer Tools -->
<svg width="256px" height="256px" viewBox="0 0 36 36" xmlns="http://www.w3.org/2000/svg" xmlns:xlink="http://www.w3.org/1999/xlink" aria-hidden="true" role="img" class="iconify iconify--twemoji" preserveAspectRatio="xMidYMid meet" fill="#000000">
<g id="SVGRepo_bgCarrier" stroke-width="0"/>
<g id="SVGRepo_tracerCarrier" stroke-linecap="round" stroke-linejoin="round"/>
<g id="SVGRepo_iconCarrier">
<path fill="#31373D" d="M35 31s0 4-4 4H5c-4 0-4-4-4-4V12c0-4 4-4 4-4h26s4 0 4 4v19z"/>
<path fill="#31373D" d="M21.303 10.389a.999.999 0 1 1-1.414 1.414l-9.192-9.192a.999.999 0 1 1 1.414-1.414l9.192 9.192z"/>
<path fill="#31373D" d="M14.697 10.389a.999.999 0 1 0 1.414 1.414l9.192-9.192a.999.999 0 1 0-1.414-1.414l-9.192 9.192z"/>
<path fill="#55ACEE" d="M18 11c8 0 10 1 11 2s2 3 2 8s-1 7-2 8s-3 2-11 2s-10-1-11-2s-2-3-2-8s1-7 2-8s3-2 11-2z"/>
<circle fill="#66757F" cx="31.5" cy="31.5" r="1.5"/>
<circle fill="#66757F" cx="4.5" cy="31.5" r="1.5"/>
</g>
</svg>